<?xml version="1.0" ?><svg width="32" height="32" fill="#3a3a3c" data-name="Layer 1" id="Layer_1" viewBox="0 0 512 512" xmlns="http://www.w3.org/2000/svg">
    <path d="M463.495,99.499C391.483,77.526,323.588,44.649,261.693,1.78c-3.424-2.373-7.963-2.373-11.387,0    C188.41,44.649,120.515,77.527,48.505,99.499c-4.207,1.283-7.081,5.166-7.081,9.564v90.443    c0,137.517,83.649,260.788,210.855,311.775c2.389,0.957,5.053,0.957,7.441,0c127.207-50.987,210.855-174.258,210.855-311.775    v-90.443C470.576,104.665,467.702,100.782,463.495,99.499z M450.576,199.507c0,128.497-76.232,242.55-194.576,291.693    C137.656,442.057,61.424,328.004,61.424,199.507v-83.078C130.588,94.575,195.987,62.879,256,22.126    c60.011,40.752,125.41,72.448,194.576,94.303V199.507z"></path><path d="M250.307,51.984c-49.09,34-102.938,60.075-160.051,77.502c-4.208,1.283-7.082,5.166-7.082,9.564v71.986    c0,110.289,67.087,209.151,169.105,250.042c2.389,0.957,5.053,0.957,7.441,0c102.019-40.891,169.105-139.753,169.105-250.042    V139.05c0-4.398-2.874-8.281-7.081-9.564c-57.115-17.428-110.964-43.503-160.051-77.502    C258.269,49.611,253.73,49.61,250.307,51.984z M408.826,146.406v64.631c0,101.155-59.852,190.977-152.826,229.952    c-92.975-38.976-152.826-128.797-152.826-229.952v-64.631C157.449,129.108,208.797,104.217,256,72.321    C303.201,104.216,354.549,129.108,408.826,146.406z"></path>
</svg>