<?xml version="1.0" ?><svg style="transform:scale(1.2)" width="32" height="32" fill="#3a3a3c" data-name="Layer 1" id="Layer_1" viewBox="0 0 512 512" xmlns="http://www.w3.org/2000/svg"><path d="M437.87,163.34l-20.74-7.86V128.23a6.26,6.26,0,0,0-4.71-6.06C313.69,96.88,269.94,128.56,256,142.84c-13.93-14.29-57.66-46-156.42-20.67a6.26,6.26,0,0,0-4.71,6.06v27.25l-20.74,7.86a6.27,6.27,0,0,0-4,5.86V393.07a6.27,6.27,0,0,0,3.27,5.5,6.39,6.39,0,0,0,3,.76,6.32,6.32,0,0,0,3.4-1c75.23-48.78,173.8-26,174.78-25.79.09,0,.17,0,.26,0a3,3,0,0,0,.42.05,2.59,2.59,0,0,0,1.56,0,3,3,0,0,0,.42-.05c.08,0,.17,0,.26,0,1-.23,99.56-23,174.78,25.79a6.32,6.32,0,0,0,3.4,1,6.39,6.39,0,0,0,3-.76,6.27,6.27,0,0,0,3.27-5.5V169.2A6.27,6.27,0,0,0,437.87,163.34ZM404.6,133.13V334.21c-81.86-19.1-124.07,2-142.34,16.87V154.59C268.58,146.85,305.37,109.17,404.6,133.13Zm-297.2,0c98.55-23.79,135.9,13.78,142.34,21.5V351.08c-13.1-10.63-38.46-24.45-81.87-24.45-17.2,0-37.25,2.18-60.47,7.58ZM82.62,382V173.51l12.25-4.64V342.19a6.26,6.26,0,0,0,7.82,6.06c73.18-18.76,113.5-4.21,133,8.41C202.91,352.51,139,350.11,82.62,382Zm346.76,0C372.8,350,308.62,352.54,276,356.71c19.2-12.69,59.38-27.41,133.32-8.46a6.2,6.2,0,0,0,5.4-1.12,6.27,6.27,0,0,0,2.42-4.94V168.87l12.25,4.64Z"/></svg>