<svg width="24" height="24" viewBox="0 0 24 24" fill="none" xmlns="http://www.w3.org/2000/svg">
<path d="M23 2H22H21C20.9 1.4 20.5001 0 19.9001 0H4.10013C3.50013 0 3.10007 1.4 3.00007 2H1.00007L1.00013 22C1.00013 22.6 1 23 1 23H23.0001C23.0001 23 23.0001 22.6 23.0001 22L23 2ZM20.0001 1V3V15H15.0001V18H9.00013V15H4.00013V3V1H20.0001ZM22.0001 22H2.00013V3H3.00013V15V16H4.00013H8.00013V19H9.00013H15.0001H16.0001V16H20.0001H21.0001V15V3H22.0001V22Z" fill="#3A3A3C"/>
<path d="M18 4H6V5H18V4Z" fill="#3A3A3C"/>
<path d="M18 6H6V7H18V6Z" fill="#3A3A3C"/>
<path d="M18 8H6V9H18V8Z" fill="#3A3A3C"/>
<path d="M18 10H6V11H18V10Z" fill="#3A3A3C"/>
<path d="M18 12H6V13H18V12Z" fill="#3A3A3C"/>
</svg>
